<svg width="117" height="52" viewBox="0 0 117 52" fill="none" xmlns="http://www.w3.org/2000/svg">
<path d="M84.8335 12.9358C89.1535 25.7253 93.4735 38.3476 97.7935 51.1372C94.1935 51.1372 90.7375 51.1372 87.1375 51.1372C88.1455 48.8802 89.0815 46.7068 90.0895 44.3662C83.1775 44.3662 76.4095 44.3662 69.4975 44.3662C70.5055 46.6232 71.5135 48.7966 72.5935 51.1372C68.9935 51.1372 65.5375 51.1372 61.9375 51.1372C66.2575 38.3476 70.5775 25.6417 74.9695 12.9358C78.2095 12.9358 81.5215 12.9358 84.8335 12.9358ZM85.1215 39.2671C83.3935 33.7501 81.7375 28.4002 79.9375 22.7996C77.7775 29.9049 75.6895 36.7594 73.5295 43.7811C77.4895 42.1929 81.2335 40.7718 85.1215 39.2671Z" fill="#193247"/>
<path d="M65.2494 31.2423C65.2494 37.7625 63.8094 42.778 60.2814 46.874C54.7374 53.2269 45.8094 52.8926 40.6254 46.038C37.2414 41.6913 36.0894 36.5086 36.3774 30.7408C36.5934 26.1432 37.7454 21.9637 40.4094 18.4528C46.2414 10.5116 56.3214 10.7624 61.7934 19.1215C64.2414 22.9668 65.2494 27.3135 65.2494 31.2423ZM62.0814 32.1618C62.1534 28.9018 61.5054 25.8089 60.0654 23.0503C55.8174 14.6076 46.6734 14.8584 42.3534 21.6293C38.4654 27.6479 38.6094 37.4281 42.7854 43.1959C46.8894 48.7966 53.8734 49.0473 58.2654 43.8647C61.0014 40.6046 62.0094 36.5922 62.0814 32.1618Z" fill="black"/>
<path d="M114.209 15.9451C110.681 15.9451 107.225 15.9451 103.697 15.9451C103.697 16.2795 103.697 16.5302 103.697 16.8646C103.697 24.2207 103.697 31.4931 103.697 38.8492C103.697 40.6882 103.769 42.6108 104.129 44.4498C104.417 45.9545 105.137 46.7904 106.433 47.1248C109.169 47.8771 111.761 47.3755 114.353 46.3724C114.929 46.1217 115.505 45.8709 116.153 45.6201C116.153 46.9576 116.153 48.1279 116.153 49.3817C113.201 50.8028 110.177 51.6387 107.009 51.2207C105.641 51.0536 104.345 50.6356 103.193 49.8833C100.889 48.3786 99.7374 46.2052 99.7374 43.1124C99.7374 34.4188 99.7374 25.7253 99.7374 17.0318C99.7374 16.6974 99.7374 16.363 99.7374 15.8615C96.4254 15.8615 93.1134 15.8615 89.5854 15.8615C90.7374 14.6912 91.7454 13.6045 92.8254 12.6014C95.0574 12.6014 97.3614 12.6014 99.7374 12.6014C99.7374 9.50854 99.7374 6.58283 99.7374 3.57354C100.673 2.40326 101.537 1.23298 102.473 0.0626937C102.905 -0.0208979 103.265 -0.0208979 103.769 0.0626937C103.769 4.24227 103.769 8.33826 103.769 12.6014C107.369 12.6014 110.825 12.6014 114.281 12.6014C114.209 13.7717 114.209 14.8584 114.209 15.9451Z" fill="black"/>
<path d="M26.7744 40.5696C26.7744 38.3098 25.8604 36.4944 24.0322 35.1233C22.2295 33.7522 19.5 32.6858 15.8438 31.9241C12.1875 31.137 9.34375 30.2483 7.3125 29.2581C5.30664 28.2424 3.80859 27.011 2.81836 25.5637C1.85352 24.1165 1.37109 22.3645 1.37109 20.3079C1.37109 17.0579 2.72949 14.3792 5.44629 12.2717C8.16309 10.1389 11.6416 9.07251 15.8818 9.07251C20.4775 9.07251 24.1592 10.2151 26.9268 12.5002C29.7197 14.76 31.1162 17.718 31.1162 21.3743H26.5459C26.5459 18.9622 25.5303 16.9563 23.499 15.3567C21.4932 13.7571 18.9541 12.9573 15.8818 12.9573C12.8857 12.9573 10.4736 13.6301 8.64551 14.9758C6.84277 16.2961 5.94141 18.0227 5.94141 20.1555C5.94141 22.2122 6.69043 23.8118 8.18848 24.9543C9.71191 26.0715 12.4668 27.0999 16.4531 28.0393C20.4648 28.9788 23.4609 29.9817 25.4414 31.0481C27.4473 32.1145 28.9326 33.3967 29.8975 34.8948C30.8623 36.3928 31.3447 38.2083 31.3447 40.3411C31.3447 43.8196 29.9355 46.5999 27.1172 48.6819C24.3242 50.7639 20.668 51.8049 16.1484 51.8049C11.3496 51.8049 7.45215 50.6497 4.45605 48.3391C1.48535 46.0032 0 43.0579 0 39.5032H4.57031C4.74805 42.1692 5.86523 44.2512 7.92188 45.7493C10.0039 47.2219 12.7461 47.9583 16.1484 47.9583C19.3223 47.9583 21.8867 47.26 23.8418 45.8635C25.7969 44.467 26.7744 42.7024 26.7744 40.5696Z" fill="black"/>
</svg>
