<svg width="20" height="20" viewBox="0 0 20 20" fill="none" xmlns="http://www.w3.org/2000/svg">
<path d="M18.0153 10.578C19.1241 10.4908 20 9.56126 20 8.43028C20 7.24208 19.0334 6.27528 17.845 6.27528H17.1777L15.1292 1.32991C14.6745 0.23219 13.4116 -0.291034 12.3137 0.163678C11.7819 0.384015 11.3676 0.798139 11.1475 1.32991C10.9271 1.86168 10.9273 2.44746 11.1476 2.97923L12.5128 6.27528H7.48734L8.85254 2.97923C9.30725 1.88136 8.78403 0.61839 7.68631 0.163678C6.58844 -0.291034 5.32532 0.23219 4.87076 1.32991L2.82227 6.27528H2.155C0.966797 6.27528 0 7.24208 0 8.43028C0 9.43873 0.696411 10.2873 1.63345 10.521L2.62207 17.9356C2.69592 18.4901 2.98096 19.0092 3.42422 19.3974C3.86749 19.7856 4.41986 19.9993 4.97925 19.9993H14.707C17.6256 19.9993 20 17.6249 20 14.7064C20 13.0386 19.2244 11.5487 18.0153 10.578ZM12.2302 2.53077C12.1297 2.28816 12.1297 2.02098 12.2301 1.77836C12.3306 1.53575 12.5195 1.34684 12.7621 1.24644C13.2629 1.03908 13.8393 1.27772 14.0466 1.77836L15.9093 6.27528H13.7813L12.2302 2.53077ZM5.95337 1.77836C6.16089 1.27772 6.73706 1.03908 7.23785 1.24644C7.73865 1.45381 7.97729 2.02998 7.76978 2.53093L6.21887 6.27528H4.09073L5.95337 1.77836ZM1.17188 8.43028C1.17188 7.88813 1.61285 7.44716 2.155 7.44716H3.21045C3.21152 7.44716 3.21259 7.44731 3.21365 7.44731C3.21503 7.44731 3.2164 7.44716 3.21777 7.44716H6.61194H6.61636H13.3824H13.3897H16.7822C16.7838 7.44716 16.7851 7.44731 16.7865 7.44731C16.7874 7.44731 16.7885 7.44716 16.7896 7.44716H17.845C18.3871 7.44716 18.8281 7.88813 18.8281 8.43028C18.8281 8.97227 18.3871 9.4134 17.845 9.4134H2.155C1.61285 9.4134 1.17188 8.97227 1.17188 8.43028ZM4.97925 18.8275C4.40689 18.8275 3.85925 18.348 3.78372 17.7807L2.82425 10.5853H11.3896C10.1857 11.5562 9.41406 13.0427 9.41406 14.7064C9.41406 16.3699 10.1857 17.8564 11.3896 18.8275H4.97925ZM14.707 18.8275C12.4347 18.8275 10.5859 16.9787 10.5859 14.7064C10.5859 12.4339 12.4347 10.5853 14.707 10.5853C16.9794 10.5853 18.8281 12.4339 18.8281 14.7064C18.8281 16.9787 16.9794 18.8275 14.707 18.8275Z" fill="black"/>
</svg>
